<?xml version="1.0" standalone="no"?>
<!DOCTYPE svg PUBLIC "-//W3C//DTD SVG 20010904//EN"
 "http://www.w3.org/TR/2001/REC-SVG-20010904/DTD/svg10.dtd">
<svg version="1.0" xmlns="http://www.w3.org/2000/svg"
 width="978.000000pt" height="978.000000pt" viewBox="0 0 978.000000 978.000000"
 preserveAspectRatio="xMidYMid meet">
<metadata>
Created by potrace 1.14, written by Peter Selinger 2001-2017
</metadata>
<g transform="translate(0.000000,978.000000) scale(0.100000,-0.100000)"
fill="#000000" stroke="none">
<path d="M5230 9639 c0 -5 -4 -8 -9 -5 -5 3 -14 -1 -21 -9 -7 -8 -18 -15 -24
-15 -6 0 -4 5 4 10 13 8 13 10 -1 10 -9 0 -19 -3 -23 -7 -10 -11 -37 -12 -30
-2 3 5 0 9 -5 9 -6 0 -11 -7 -11 -15 0 -8 -5 -15 -11 -15 -5 0 -7 5 -3 11 4 7
1 10 -7 7 -8 -3 -13 -11 -11 -17 1 -7 -2 -10 -7 -6 -6 3 -8 11 -5 19 3 7 -2
13 -10 13 -8 0 -12 -6 -9 -15 5 -12 3 -12 -18 -1 -31 17 -51 20 -43 7 4 -6 -2
-8 -16 -3 -15 5 -20 4 -16 -4 5 -7 1 -9 -8 -5 -9 3 -14 10 -11 14 3 5 0 12 -6
16 -8 4 -9 3 -5 -5 5 -8 0 -10 -18 -7 -15 3 -24 1 -22 -3 3 -4 -1 -8 -9 -8 -8
0 -12 4 -10 8 9 14 -34 16 -60 3 -21 -11 -26 -11 -22 -1 3 9 -7 13 -34 12 -30
0 -38 -3 -34 -14 4 -11 1 -11 -13 2 -16 14 -21 15 -38 3 -10 -8 -22 -15 -25
-17 -3 -2 -14 3 -24 11 -17 13 -18 13 -13 -1 7 -19 -23 -19 -45 -1 -12 11 -15
10 -13 -5 1 -15 -6 -18 -36 -17 -21 1 -35 -2 -32 -7 3 -5 -2 -6 -11 -3 -10 4
-26 -3 -42 -17 l-26 -24 19 30 c18 30 18 30 -2 13 -14 -12 -24 -14 -30 -8 -7
7 -11 6 -11 -4 0 -8 4 -13 9 -10 4 3 5 -2 1 -11 -3 -10 -8 -13 -12 -6 -4 6
-21 10 -38 8 -17 -1 -29 -5 -26 -9 2 -5 -1 -8 -7 -8 -6 0 -9 -4 -6 -9 3 -4 -5
-6 -17 -4 -26 5 -80 -20 -69 -33 4 -4 -1 -2 -11 5 -16 13 -19 12 -24 -7 -3
-12 -10 -22 -15 -22 -5 0 -7 4 -4 8 3 5 -1 9 -9 9 -8 0 -11 -5 -8 -10 4 -6 0
-8 -10 -4 -10 4 -16 2 -14 -6 1 -6 -8 -13 -21 -15 -13 -2 -20 -8 -16 -14 5 -7
0 -9 -14 -6 -18 5 -20 3 -13 -11 8 -14 5 -17 -20 -15 -26 2 -28 0 -17 -14 11
-13 10 -14 -9 -4 -16 9 -24 9 -29 0 -5 -7 -3 -8 6 -3 9 6 11 4 6 -4 -5 -7 -14
-10 -22 -7 -8 3 -13 0 -11 -7 1 -7 -8 -11 -23 -10 -14 1 -19 0 -12 -3 18 -9
14 -24 -5 -17 -10 4 -14 2 -10 -4 8 -13 -20 -26 -36 -16 -6 4 -8 0 -4 -10 4
-12 2 -14 -10 -10 -11 4 -14 2 -9 -5 5 -8 2 -10 -8 -6 -9 4 -18 -1 -22 -10 -3
-9 -10 -14 -14 -11 -4 3 -10 -4 -13 -15 -4 -14 -10 -18 -23 -13 -13 5 -15 3
-9 -7 5 -8 3 -11 -6 -8 -14 5 -23 -2 -49 -37 -12 -17 -10 -16 11 3 14 12 29
22 33 22 5 0 -4 -10 -20 -22 -16 -13 -34 -22 -40 -20 -7 1 -17 -11 -22 -28 -6
-16 -14 -30 -17 -30 -3 0 -4 4 0 9 3 5 2 12 -3 15 -4 2 -9 -5 -9 -17 -1 -12
-10 -29 -21 -37 -10 -8 -21 -23 -25 -33 -4 -11 -12 -15 -19 -11 -8 5 -8 1 2
-12 8 -10 11 -16 6 -12 -11 9 -48 -10 -41 -21 2 -5 -2 -14 -11 -21 -12 -11
-12 -15 -2 -21 10 -7 9 -9 -3 -9 -9 0 -20 -7 -23 -16 -6 -15 -4 -15 10 -3 16
13 16 12 4 -8 -8 -12 -18 -19 -24 -16 -5 4 -7 -1 -3 -10 4 -12 1 -17 -10 -17
-13 0 -14 -2 -2 -17 8 -9 9 -14 3 -10 -20 12 -37 -19 -24 -42 9 -18 8 -20 -7
-14 -16 6 -16 5 -4 -10 12 -15 12 -17 -3 -11 -14 5 -15 3 -6 -20 6 -18 6 -25
0 -21 -6 3 -10 1 -10 -5 0 -6 -5 -8 -11 -4 -8 5 -8 1 0 -14 7 -13 7 -22 1 -24
-14 -5 -19 -51 -7 -66 7 -9 6 -11 -8 -6 -13 5 -16 4 -11 -5 4 -6 2 -19 -6 -28
-11 -15 -11 -16 6 -9 20 7 20 7 0 -15 -11 -14 -13 -19 -4 -14 9 5 7 0 -4 -14
-17 -19 -17 -21 -3 -15 13 5 16 2 11 -10 -3 -9 -11 -13 -16 -10 -6 4 -6 -2 1
-14 8 -16 7 -21 -5 -26 -13 -5 -14 -9 -4 -21 10 -12 10 -15 -1 -15 -11 0 -11
-2 1 -10 13 -9 13 -10 0 -10 -13 0 -13 -1 0 -10 9 -6 10 -10 3 -10 -6 0 -11
-8 -11 -17 3 -33 -12 -74 -24 -67 -7 4 -8 3 -4 -5 6 -9 11 -9 21 -1 11 9 12 7
8 -9 -3 -12 -10 -18 -17 -14 -7 4 -7 1 1 -7 8 -9 9 -19 2 -32 -5 -10 -6 -18
-1 -18 5 0 8 -10 6 -22 -1 -13 -3 -23 -4 -23 -1 0 -3 -19 -3 -43 -1 -23 1 -42
4 -42 13 0 18 -29 7 -36 -7 -4 -8 -3 -4 4 4 7 2 12 -3 12 -14 0 -14 -17 -1
-25 14 -9 12 -55 -2 -56 -7 0 -3 -5 10 -11 12 -6 22 -15 22 -20 0 -5 -5 -6
-11 -3 -6 4 -9 0 -7 -11 2 -10 -2 -19 -9 -19 -7 0 -18 -7 -25 -15 -11 -12 -11
-12 5 -1 9 7 17 10 17 7 0 -4 10 -2 23 4 20 10 21 10 4 -4 -10 -8 -18 -18 -18
-23 -1 -4 -3 -10 -6 -13 -4 -3 -3 1 1 8 4 6 2 12 -3 12 -6 0 -11 -4 -11 -9 0
-6 -9 -8 -19 -6 -19 4 -22 -9 -7 -33 7 -12 4 -12 -15 -2 -20 10 -22 10 -11 -1
13 -14 17 -43 4 -35 -5 3 -7 -5 -6 -17 1 -12 3 -26 3 -30 1 -5 7 -5 14 -2 6 4
5 1 -3 -7 -19 -16 -25 -62 -7 -52 9 6 9 4 0 -7 -16 -16 -17 -33 -1 -23 7 4 8
3 4 -4 -4 -7 -14 -12 -22 -12 -14 0 -13 -2 0 -16 22 -22 20 -27 -6 -13 -18 9
-21 9 -11 -1 6 -7 9 -19 6 -28 -5 -11 -2 -13 8 -8 8 4 5 0 -5 -8 -26 -21 -29
-46 -8 -64 9 -7 11 -11 4 -7 -16 9 -42 -12 -36 -29 3 -7 -2 -19 -11 -26 -8 -7
-15 -18 -15 -26 0 -18 -17 -27 -26 -13 -4 8 -3 9 4 5 7 -4 12 -1 12 8 0 18
-56 50 -70 41 -6 -3 -7 1 -4 9 3 9 11 16 17 16 6 0 7 3 4 6 -4 4 -12 2 -20 -4
-14 -12 -25 -7 -47 23 -11 15 -7 13 15 -5 16 -14 24 -18 17 -9 -6 9 -8 20 -4
24 4 5 2 5 -5 1 -6 -3 -19 4 -29 16 -10 14 -14 16 -11 6 3 -9 -1 -19 -9 -22
-8 -3 -13 -2 -9 3 3 5 -1 12 -7 14 -10 4 -10 7 0 15 11 7 11 10 -3 15 -9 4
-14 3 -12 -1 3 -4 -1 -12 -8 -19 -10 -10 -14 -9 -19 3 -3 9 -1 12 4 9 6 -3 10
-2 10 3 0 14 -38 22 -44 8 -3 -6 -3 -1 -1 11 3 12 0 25 -6 29 -8 4 -9 3 -5 -4
11 -18 -29 -15 -44 3 -10 12 -16 13 -29 3 -14 -12 -14 -11 -2 5 13 17 7 23
-21 18 -5 0 -8 9 -9 21 0 13 -3 17 -6 11 -2 -7 -9 -13 -14 -13 -6 0 -8 4 -5 8
2 4 -4 13 -15 20 -21 14 -26 3 -6 -17 9 -10 7 -10 -11 0 -12 8 -20 19 -18 26
3 7 -1 10 -10 6 -8 -3 -14 1 -15 8 0 8 -4 5 -9 -6 -8 -20 -9 -20 -9 1 -1 17
-6 21 -27 18 -18 -2 -24 2 -20 11 7 20 -3 25 -30 15 -15 -6 -26 -5 -30 2 -4 6
-3 8 4 4 6 -3 14 -1 18 6 4 7 4 10 -1 6 -4 -4 -17 -3 -28 3 -10 6 -17 7 -14 2
3 -5 -3 -9 -13 -9 -15 0 -17 3 -7 15 10 12 9 13 -10 2 -15 -7 -23 -8 -23 -1 0
5 5 10 12 10 6 0 8 3 5 6 -4 4 -13 1 -21 -5 -11 -9 -16 -9 -22 0 -5 8 -3 9 6
4 9 -6 11 -4 6 4 -5 7 -14 10 -22 7 -8 -3 -14 -1 -14 3 0 5 -12 8 -26 6 -14
-1 -31 3 -37 10 -7 6 -23 11 -35 10 -15 -1 -27 7 -36 23 -11 21 -14 22 -19 8
-5 -12 -3 -15 6 -10 6 4 9 4 5 -1 -4 -4 -2 -15 4 -24 10 -12 7 -12 -8 2 -11 9
-24 14 -29 10 -4 -5 -6 -3 -2 2 3 6 -3 17 -15 24 -11 7 -17 8 -14 3 3 -6 -1
-12 -9 -16 -8 -3 -18 0 -22 7 -5 7 -21 18 -37 25 -26 12 -28 12 -16 -3 7 -8
10 -18 6 -22 -3 -3 -6 -1 -6 6 0 7 -7 11 -14 8 -10 -4 -13 -1 -10 7 3 8 0 17
-7 22 -8 4 -10 3 -5 -4 4 -7 1 -12 -6 -13 -57 -5 -80 -4 -85 4 -3 5 -9 4 -13
-2 -5 -9 -10 -7 -20 4 -11 13 -10 15 4 9 9 -3 16 -1 16 6 0 6 -4 9 -9 5 -6 -3
-14 3 -20 12 -6 10 -11 12 -11 6 0 -7 -9 -13 -21 -13 -11 0 -18 4 -15 8 2 4
-4 8 -15 8 -19 0 -19 -1 1 -16 20 -15 20 -16 1 -16 -11 0 -17 5 -14 10 4 5 -1
7 -10 3 -9 -3 -19 -1 -23 5 -4 7 -3 8 4 4 7 -4 12 -2 12 3 0 14 -13 14 -28 -1
-14 -14 -16 3 -2 20 7 9 7 9 -2 2 -14 -12 -31 -13 -24 -2 2 4 -4 8 -14 8 -10
0 -16 -6 -13 -13 3 -7 9 -11 13 -8 5 3 11 2 14 -3 2 -4 -6 -8 -19 -8 -13 0
-23 2 -23 6 2 18 -3 30 -13 30 -6 0 -9 -6 -6 -13 5 -14 -55 -18 -69 -4 -5 4
-1 5 9 1 11 -4 17 -1 17 7 0 7 -3 9 -7 6 -3 -4 -12 -2 -20 5 -8 6 -13 7 -12 2
4 -21 -2 -24 -23 -14 -22 11 -22 10 -4 -4 10 -9 23 -13 27 -10 5 3 9 0 9 -5 0
-6 -10 -11 -21 -11 -16 0 -20 -5 -16 -19 3 -14 0 -18 -17 -15 -11 2 -16 2 -9
-2 13 -6 6 -34 -9 -34 -5 0 -6 5 -2 12 4 7 3 8 -4 4 -9 -5 -7 -15 6 -34 12
-19 13 -24 3 -17 -11 6 -13 4 -7 -10 5 -14 4 -16 -7 -6 -12 9 -13 6 -9 -16 3
-16 9 -31 14 -34 5 -3 2 -9 -7 -12 -10 -5 -14 -3 -9 5 4 7 3 8 -4 4 -6 -4 -9
-13 -5 -21 3 -9 -1 -15 -8 -15 -8 0 -5 -6 7 -16 10 -8 12 -12 4 -8 -13 7 -13
5 -1 -9 12 -15 11 -17 -5 -17 -17 0 -17 -1 2 -15 19 -15 19 -15 0 -8 -16 5
-18 3 -13 -11 4 -10 7 -20 7 -22 0 -3 5 -2 12 2 7 4 8 3 4 -5 -4 -6 -11 -9
-16 -6 -4 3 -11 -2 -14 -11 -3 -8 -2 -13 3 -10 5 3 12 -1 15 -10 3 -8 2 -13
-3 -10 -5 3 -12 -1 -15 -10 -9 -24 -7 -28 8 -15 11 9 12 6 8 -14 -2 -14 -8
-22 -13 -19 -5 3 -9 0 -9 -5 0 -6 5 -11 11 -11 6 0 9 -6 6 -14 -3 -7 -1 -18 4
-23 7 -7 5 -16 -6 -27 -9 -9 -12 -16 -7 -16 15 0 23 -28 10 -36 -7 -4 -8 -3
-4 4 4 7 3 12 -3 12 -5 0 -9 -9 -8 -19 0 -11 4 -18 8 -15 14 8 15 -31 2 -58
-7 -16 -9 -28 -4 -28 5 0 12 6 14 13 3 6 4 1 3 -13 -1 -14 -5 -30 -8 -35 -3
-6 -4 -19 -1 -30 2 -11 4 -30 5 -42 0 -13 6 -23 12 -23 6 0 5 -4 -3 -9 -9 -6
-10 -11 -2 -15 6 -4 11 -12 11 -18 0 -6 -7 -5 -18 3 -9 7 -4 -2 13 -21 16 -19
23 -29 15 -22 -21 18 -26 15 -26 -13 0 -16 5 -24 12 -21 8 3 11 -1 7 -10 -3
-8 1 -22 8 -31 12 -14 12 -16 -2 -11 -9 4 -16 1 -16 -8 0 -7 4 -11 9 -8 4 3 8
2 9 -3 0 -4 2 -17 4 -28 2 -10 -2 -26 -8 -34 -7 -8 -7 -12 -2 -9 6 3 17 -1 25
-10 13 -14 13 -15 -1 -10 -10 4 -15 0 -15 -12 0 -10 3 -18 6 -18 28 2 32 -3
14 -18 -14 -12 -15 -14 -3 -11 13 4 15 1 12 -14 -3 -11 0 -19 7 -19 9 0 9 -4
-1 -16 -12 -15 -11 -16 11 -9 23 7 23 7 7 -9 -17 -18 -23 -31 -9 -23 4 3 14
-2 22 -11 13 -14 12 -15 -2 -10 -21 9 -17 -20 5 -37 13 -9 14 -14 4 -25 -9
-10 -9 -11 1 -6 6 4 12 2 12 -4 0 -6 5 -8 11 -4 8 5 8 1 0 -14 -9 -17 -8 -22
8 -27 11 -3 22 -13 25 -21 3 -8 2 -12 -3 -9 -5 3 -13 0 -17 -6 -4 -8 -3 -9 4
-5 7 4 12 1 12 -8 0 -8 4 -18 10 -21 6 -4 7 1 4 12 -6 15 -4 15 9 -2 8 -11 12
-22 9 -25 -4 -3 -8 -11 -10 -19 -3 -12 0 -12 13 -1 8 7 18 10 22 6 3 -3 2 -6
-3 -6 -5 0 -10 -10 -11 -22 0 -13 1 -17 4 -10 8 22 21 13 18 -13 -3 -28 10
-42 21 -24 5 8 3 9 -6 4 -9 -6 -11 -4 -6 4 5 7 11 9 15 6 6 -6 7 -10 10 -36 0
-5 6 -7 11 -4 6 3 10 0 10 -9 0 -8 -6 -17 -12 -20 -7 -3 -2 -3 11 0 17 5 21 3
16 -7 -6 -9 -3 -11 9 -6 12 5 15 3 9 -6 -17 -28 -11 -41 9 -17 14 16 19 19 15
7 -4 -11 -1 -20 8 -24 12 -4 13 -9 4 -19 -8 -10 -6 -12 11 -9 18 4 20 2 9 -11
-10 -12 -9 -13 6 -8 13 5 16 4 11 -4 -4 -7 -2 -12 4 -12 6 0 8 -5 4 -11 -4 -7
2 -6 17 1 l24 13 -20 -24 c-15 -18 -16 -20 -2 -10 15 12 20 11 37 -9 11 -12
17 -27 13 -33 -3 -6 -1 -7 5 -3 7 4 12 2 12 -5 0 -7 3 -9 6 -6 4 4 1 13 -6 22
-11 13 -10 14 4 9 9 -3 16 -14 16 -23 0 -26 11 -33 28 -18 13 10 14 9 3 -12
-7 -13 -8 -21 -3 -17 6 3 13 2 17 -4 4 -7 13 -6 27 1 15 8 19 8 14 0 -7 -10 7
-16 28 -12 5 1 4 -5 -3 -13 -10 -12 -9 -14 8 -9 13 3 21 1 21 -6 0 -7 -5 -9
-12 -5 -9 5 -9 2 1 -9 15 -19 31 -22 31 -6 0 5 -5 7 -12 3 -7 -4 -8 -3 -4 5 6
9 11 9 22 0 7 -6 11 -16 7 -22 -4 -6 0 -8 11 -4 10 4 15 3 11 -3 -3 -6 1 -10
9 -10 9 0 16 -5 16 -11 0 -5 5 -7 10 -4 6 3 10 2 10 -4 0 -5 9 -13 20 -16 11
-4 18 -11 15 -16 -4 -5 -1 -9 5 -9 7 0 10 -6 7 -14 -4 -10 0 -12 16 -8 19 5
20 3 9 -10 -11 -14 -10 -16 10 -11 18 4 20 3 8 -6 -13 -9 -13 -11 3 -11 9 0
17 -5 17 -11 0 -5 -4 -7 -10 -4 -6 3 -7 -1 -4 -9 3 -9 10 -13 15 -10 5 3 9 0
9 -5 0 -6 -5 -11 -11 -11 -5 0 -7 -5 -4 -10 4 -6 11 -7 17 -4 6 4 8 2 4 -4 -3
-6 -2 -13 4 -17 6 -4 8 -11 4 -16 -3 -5 -9 -7 -14 -4 -5 3 -12 1 -15 -5 -4 -6
-3 -10 2 -9 21 4 29 -3 29 -25 0 -14 -4 -22 -8 -20 -5 3 -6 9 -3 14 3 5 1 11
-4 14 -5 4 -12 2 -15 -3 -4 -5 -2 -12 4 -16 5 -3 10 -11 10 -17 0 -6 -7 -5
-17 3 -16 12 -17 12 -7 -1 6 -8 10 -32 9 -52 -2 -21 1 -38 5 -38 4 0 11 -7 14
-16 3 -8 2 -13 -3 -9 -5 3 -11 2 -14 -2 -2 -5 -2 -2 0 5 1 7 -2 10 -7 7 -11
-7 -8 -41 5 -52 4 -5 5 -2 0 6 -6 10 -4 12 4 7 9 -6 9 -11 0 -23 -11 -13 -15
-13 -27 4 -13 17 -14 16 -7 -6 5 -17 4 -21 -5 -16 -9 5 -9 3 -2 -11 11 -22 5
-47 -9 -38 -5 3 -9 0 -9 -5 0 -6 5 -11 11 -11 5 0 7 -5 4 -10 -4 -6 -10 -8
-14 -6 -4 3 -13 1 -20 -3 -10 -6 -9 -10 4 -14 10 -5 14 -3 9 5 -4 7 -3 8 5 4
9 -6 9 -11 0 -22 -6 -8 -9 -17 -6 -21 4 -3 -1 -12 -11 -20 -16 -14 -16 -14 2
-8 20 6 20 6 0 -16 -14 -16 -15 -21 -4 -17 11 4 15 -1 15 -18 -1 -13 -5 -27
-10 -31 -4 -5 -5 -2 0 6 5 10 4 12 -4 7 -6 -4 -9 -12 -5 -17 3 -5 10 -6 16 -3
7 5 9 1 5 -9 -3 -10 -3 -17 2 -17 5 0 11 -8 13 -18 4 -15 0 -18 -20 -16 -18 2
-22 0 -13 -9 16 -16 14 -27 -5 -27 -8 0 -13 4 -10 9 7 11 -21 8 -31 -4 -4 -4
-2 -5 5 -1 7 4 15 1 18 -8 5 -12 10 -13 26 -5 11 6 17 17 14 25 -7 19 -4 18
18 -8 16 -18 16 -20 2 -15 -12 5 -20 -3 -31 -26 -11 -23 -13 -25 -9 -7 l7 25
-24 -20 c-13 -11 -18 -13 -11 -5 10 12 7 18 -15 38 -16 13 -22 21 -15 17 7 -4
12 0 12 10 0 9 -4 13 -10 10 -6 -3 -10 1 -10 10 0 10 5 13 12 9 7 -4 8 -3 4 4
-4 6 -13 9 -21 5 -8 -3 -15 -1 -15 5 0 6 6 13 13 15 9 4 9 6 0 6 -7 1 -13 12
-13 26 0 14 -5 25 -11 25 -5 0 -7 -5 -3 -12 4 -7 3 -8 -5 -4 -9 6 -9 11 -1 21
8 9 6 14 -6 19 -13 5 -14 9 -5 20 9 11 9 17 -2 28 -12 11 -12 14 2 25 14 10
12 11 -8 6 -20 -5 -23 -3 -18 10 3 9 0 23 -8 31 -11 11 -12 16 -2 19 9 4 9 6
0 6 -7 1 -13 8 -13 16 0 8 -5 15 -11 15 -8 0 -7 6 2 17 8 9 9 14 3 10 -7 -4
-17 0 -24 8 -10 13 -10 15 1 12 8 -2 11 -2 7 0 -5 3 -8 12 -9 21 0 11 -2 12
-6 5 -2 -7 -9 -13 -14 -13 -6 0 -5 9 2 21 7 14 7 19 0 15 -5 -4 -17 7 -26 23
-11 22 -20 29 -33 25 -10 -4 -13 -3 -6 3 17 12 13 40 -5 39 -9 -1 -15 6 -15
16 1 11 -5 15 -17 13 -11 -2 -16 1 -13 9 6 14 -22 30 -37 21 -5 -4 -6 0 -3 8
3 8 0 18 -5 22 -6 3 -8 11 -5 17 4 7 2 8 -4 4 -7 -4 -12 -2 -12 5 0 7 -3 9 -7
6 -3 -4 2 -17 13 -28 19 -22 19 -22 -4 -8 -12 8 -22 17 -22 20 0 3 -9 16 -19
28 -14 16 -21 18 -24 9 -4 -9 -6 -7 -6 4 -1 9 -6 20 -13 24 -6 4 -8 3 -5 -3 7
-12 -29 -10 -40 2 -5 4 -3 5 4 1 6 -3 14 -2 18 4 3 5 -3 10 -15 10 -12 0 -19
4 -16 9 9 14 -20 21 -34 8 -10 -9 -11 -9 -5 2 6 11 4 13 -8 8 -10 -4 -21 3
-32 19 -14 22 -19 23 -33 12 -11 -9 -14 -10 -8 0 4 7 2 12 -4 12 -6 0 -8 6 -4
13 4 6 4 9 -1 5 -4 -4 -15 -2 -23 5 -10 8 -13 8 -9 1 4 -7 0 -15 -9 -18 -24
-9 -31 -7 -14 4 11 7 11 10 2 10 -7 0 -11 4 -8 9 3 5 -9 8 -28 7 -19 -1 -34 1
-34 4 2 23 -4 31 -21 25 -12 -3 -21 0 -24 10 -5 11 -12 13 -32 5 -16 -6 -25
-6 -26 0 -1 6 -2 14 -3 19 0 5 -5 13 -10 18 -5 5 -6 3 -2 -4 4 -7 4 -13 -1
-14 -4 0 -16 -2 -25 -4 -10 -2 -21 2 -25 7 -4 7 -1 8 7 3 9 -5 11 -4 6 4 -4 6
-11 9 -16 6 -4 -3 -11 1 -14 7 -4 7 -4 3 -2 -10 3 -16 1 -21 -7 -14 -7 4 -18
7 -24 6 -7 -1 -19 -2 -26 -3 -8 0 -14 -8 -14 -16 0 -9 6 -14 13 -11 7 3 10 -2
7 -15 -3 -11 -10 -16 -17 -12 -6 4 -5 -1 3 -10 7 -9 19 -17 25 -17 6 0 4 5 -4
11 -13 9 -13 10 0 6 8 -2 14 -10 12 -17 -4 -18 44 -110 54 -102 5 4 2 -2 -6
-12 -10 -13 -10 -17 -2 -12 11 6 14 0 11 -20 0 -4 5 -11 13 -15 11 -7 10 -9
-1 -9 -11 0 -10 -4 5 -16 10 -8 14 -13 8 -10 -6 3 -11 -1 -11 -8 0 -8 7 -12
14 -9 9 3 14 0 13 -8 -4 -29 0 -45 8 -32 5 8 8 -2 9 -24 1 -21 6 -39 12 -41 6
-2 11 -16 11 -31 0 -19 7 -32 23 -40 12 -6 14 -9 5 -7 -10 3 -20 0 -24 -6 -4
-6 -3 -8 3 -5 6 4 17 -1 24 -10 12 -14 12 -16 0 -8 -8 5 -5 -6 8 -23 12 -18
17 -32 11 -32 -6 0 -8 -5 -5 -10 4 -6 12 -7 18 -3 8 4 7 1 -1 -9 -11 -14 -10
-18 5 -27 11 -6 13 -11 5 -11 -10 0 -9 -4 3 -16 14 -15 14 -17 -2 -30 -17 -12
-17 -13 4 -9 16 3 20 0 16 -11 -3 -7 -10 -11 -17 -7 -6 3 -2 -4 9 -17 12 -14
14 -20 5 -15 -12 7 -13 6 -3 -6 14 -18 13 -59 -2 -59 -7 0 -6 -3 1 -8 12 -8
14 -133 2 -126 -15 10 -8 -9 9 -21 13 -9 13 -14 3 -20 -9 -6 -11 -4 -5 6 7 12
5 12 -6 1 -12 -11 -12 -14 1 -22 12 -8 11 -10 -5 -11 -16 0 -17 -2 -5 -7 17
-8 20 -39 6 -61 -6 -10 -5 -16 2 -19 7 -2 12 -10 12 -18 0 -9 -4 -12 -10 -9
-6 3 -7 -1 -4 -9 3 -9 9 -14 13 -11 4 2 8 -1 8 -8 0 -7 3 -22 7 -34 5 -16 3
-23 -5 -23 -7 0 -2 -8 9 -19 12 -10 19 -21 15 -24 -3 -4 2 -10 12 -14 18 -6
18 -7 -1 -14 -17 -7 -17 -8 -1 -8 9 -1 17 -8 17 -16 0 -8 7 -15 15 -15 9 0 12
-6 8 -17 -4 -11 -3 -14 5 -9 7 4 12 2 12 -4 0 -6 4 -8 10 -5 6 3 7 -1 4 -9 -3
-9 -1 -16 6 -16 6 0 8 -5 4 -12 -5 -7 -2 -9 8 -5 21 8 31 -3 17 -19 -8 -10 -6
-12 10 -9 13 2 22 -3 26 -13 3 -10 19 -26 36 -36 18 -11 29 -13 24 -6 -6 9 -2
9 16 -1 13 -7 28 -12 32 -11 5 1 6 -2 2 -8 -3 -5 -3 -10 2 -11 4 0 19 -3 33
-5 14 -3 35 -5 48 -6 12 -1 22 -6 22 -11 0 -4 4 -5 10 -2 5 3 10 0 11 -7 0 -7
4 -4 9 7 7 16 9 17 9 3 1 -9 6 -20 13 -24 7 -5 8 -2 3 7 -6 11 -5 12 6 1 16
-14 43 -16 34 -2 -10 16 1 11 16 -7 8 -10 9 -14 2 -10 -6 4 -14 4 -17 -1 -2
-4 6 -8 19 -8 13 0 21 4 19 8 -3 4 0 8 5 8 6 0 11 -4 11 -10 0 -5 5 -10 11
-10 5 0 7 5 4 10 -3 6 -1 10 4 10 6 0 11 -4 11 -8 0 -13 62 -13 76 -1 9 8 11
5 7 -10 -3 -13 -1 -21 6 -21 7 0 10 4 7 9 -3 5 1 11 9 15 10 3 15 -1 16 -12 1
-11 4 -8 9 8 5 17 8 19 9 8 1 -10 6 -18 12 -18 5 0 8 4 5 8 -3 5 1 9 9 9 8 0
12 -4 9 -8 -2 -4 4 -13 13 -19 17 -11 17 -11 1 -6 -10 3 -18 1 -18 -4 0 -9 14
-14 32 -11 4 0 5 -6 1 -15 -3 -8 -2 -14 3 -12 8 3 14 -4 14 -17 0 -3 -10 -1
-22 5 -23 11 -23 11 1 -9 18 -17 20 -21 7 -21 -10 0 -15 -4 -12 -9 4 -5 2 -21
-3 -35 -7 -18 -16 -24 -31 -21 -11 2 -18 0 -15 -6 4 -5 11 -7 16 -4 5 4 9 1 9
-4 0 -6 -9 -11 -21 -11 -11 0 -17 -4 -14 -10 10 -16 -1 -11 -16 7 -12 14 -12
16 0 8 10 -5 12 -4 7 3 -11 18 -20 14 -31 -10 -6 -13 -14 -21 -19 -20 -5 2
-13 -2 -18 -10 -8 -10 -9 -9 -4 4 3 10 0 20 -6 24 -6 4 -8 3 -4 -4 3 -6 0 -17
-8 -25 -8 -8 -13 -17 -10 -20 9 -8 -19 -3 -35 7 -10 6 -12 5 -7 -3 10 -16 -14
-43 -32 -36 -13 5 -13 3 -1 -12 9 -11 10 -14 2 -9 -8 4 -13 2 -13 -4 0 -7 -7
-9 -16 -6 -14 5 -15 4 -4 -9 11 -13 10 -14 -5 -9 -12 5 -16 4 -12 -3 4 -6 0
-13 -8 -17 -8 -3 -15 -12 -15 -20 0 -8 -5 -18 -12 -22 -7 -5 -9 -2 -4 7 4 8 1
6 -7 -3 -8 -10 -18 -14 -22 -10 -5 4 -5 1 -1 -6 4 -7 12 -10 17 -7 5 4 9 4 9
2 0 -3 -15 -15 -32 -27 -27 -17 -28 -20 -9 -15 21 6 22 5 10 -8 -8 -8 -16 -14
-19 -12 -3 2 -10 -3 -17 -10 -10 -11 -10 -15 0 -18 9 -4 9 -6 -1 -6 -7 -1 -10
-5 -7 -11 3 -5 1 -10 -6 -10 -7 0 -9 -10 -7 -25 4 -21 3 -23 -9 -14 -11 10
-12 8 -7 -6 5 -13 4 -16 -4 -11 -7 4 -12 3 -12 -3 0 -5 5 -13 12 -17 7 -5 5
-11 -7 -21 -11 -7 -15 -13 -10 -13 5 0 0 -7 -11 -15 -12 -9 -13 -13 -4 -10 11
4 16 -1 16 -14 0 -16 -3 -18 -15 -8 -12 10 -13 9 -4 -8 9 -15 8 -22 -5 -33
-10 -7 -12 -11 -5 -8 7 4 11 -1 10 -13 0 -11 -5 -17 -9 -15 -9 6 -6 -26 5 -43
4 -6 2 -15 -4 -19 -8 -5 -9 -3 -4 6 5 9 4 11 -4 6 -6 -4 -8 -13 -4 -19 12 -19
9 -41 -7 -54 -13 -10 -11 -12 10 -8 24 4 24 4 6 -10 -11 -8 -14 -15 -7 -15 7
0 9 -5 6 -10 -4 -6 -11 -8 -16 -5 -5 3 -6 -1 -3 -9 3 -9 11 -13 18 -9 7 4 7 2
-1 -8 -10 -12 -10 -18 0 -29 8 -9 9 -11 0 -6 -6 3 -14 2 -18 -4 -3 -5 -1 -10
5 -10 6 0 8 -5 4 -12 -4 -7 -9 -23 -10 -36 -2 -18 1 -22 13 -18 13 5 14 4 3
-9 -7 -8 -9 -15 -5 -15 4 0 2 -6 -4 -14 -8 -9 -8 -16 -2 -20 12 -8 13 -114 0
-121 -15 -10 -10 -25 9 -26 14 0 14 -2 2 -7 -8 -4 -16 -11 -16 -17 -1 -5 -4
-23 -8 -38 -5 -22 -4 -27 6 -21 10 6 11 5 1 -8 -7 -8 -9 -19 -5 -23 4 -5 -1
-5 -11 -2 -15 6 -16 4 -7 -13 7 -12 7 -20 1 -20 -5 0 -8 -11 -5 -25 2 -14 0
-25 -6 -25 -6 0 -8 5 -5 10 3 6 4 10 1 10 -3 0 -10 -10 -17 -21 -7 -13 -7 -19
-1 -15 6 3 4 -7 -4 -24 -9 -16 -18 -30 -20 -30 -3 0 -2 5 2 12 4 7 3 8 -5 4
-8 -6 -9 -11 -2 -20 13 -15 -21 -52 -38 -41 -6 3 -9 0 -5 -8 5 -14 -20 -47
-35 -47 -4 0 -15 -16 -24 -35 -9 -19 -22 -35 -27 -35 -6 0 -9 -4 -5 -9 3 -6
-3 -8 -13 -6 -13 2 -19 -2 -18 -13 1 -11 -6 -17 -20 -16 -14 0 -20 -4 -17 -12
6 -15 -26 -33 -47 -27 -9 3 -7 -1 5 -12 11 -9 14 -13 7 -10 -8 4 -22 -2 -33
-14 -11 -12 -24 -19 -30 -16 -5 4 -9 1 -9 -4 0 -6 -5 -11 -11 -11 -5 0 -7 5
-3 12 4 7 3 8 -5 4 -6 -4 -8 -12 -5 -18 5 -8 1 -9 -10 -5 -11 5 -15 3 -10 -5
5 -7 0 -9 -14 -6 -14 4 -19 2 -16 -7 7 -17 -12 -29 -22 -14 -5 8 -3 9 7 4 12
-8 12 -6 0 8 -18 22 -20 22 -16 -8 2 -19 -1 -23 -10 -15 -16 13 -28 -13 -14
-27 6 -6 4 -10 -5 -10 -8 0 -13 4 -10 9 3 4 1 8 -5 8 -5 0 -13 -4 -16 -10 -3
-5 -1 -10 5 -10 6 0 9 -4 6 -8 -3 -5 10 -8 29 -7 18 0 33 -2 33 -5 -2 -20 4
-21 18 -4 8 10 13 14 10 8 -3 -7 1 -15 10 -18 8 -3 12 -2 9 4 -3 6 -1 10 4 10
6 0 11 -5 11 -12 0 -6 6 -4 13 7 11 14 16 15 22 5 6 -9 4 -11 -6 -5 -8 5 -10
4 -6 0 12 -14 39 -15 34 -2 -3 8 11 11 47 10 35 -1 57 4 69 15 15 14 17 14 12
1 -4 -10 0 -16 9 -16 9 0 12 6 8 16 -5 14 -4 14 13 1 10 -8 16 -10 12 -3 -4 6
-3 14 3 18 5 3 10 -1 10 -10 0 -9 5 -13 10 -10 6 4 7 12 3 18 -4 8 -1 7 9 -1
13 -10 18 -10 24 -1 5 8 3 9 -6 4 -9 -5 -11 -4 -6 4 6 9 11 9 22 0 9 -7 14 -8
14 -1 0 6 9 9 21 7 18 -4 19 -2 7 12 -12 15 -11 15 18 0 25 -13 31 -13 31 -2
0 8 -5 11 -11 8 -6 -4 -7 -2 -3 3 5 5 12 9 15 9 4 0 13 4 21 9 9 6 12 5 8 -1
-3 -5 4 -9 16 -8 14 1 21 8 21 19 -2 13 1 14 12 5 12 -10 13 -8 7 7 -6 16 -4
17 9 6 13 -10 16 -9 21 8 4 14 10 18 23 13 13 -5 15 -3 9 8 -7 11 -6 12 6 2
11 -9 18 -8 31 1 10 7 15 16 11 19 -3 4 -1 7 6 7 7 0 9 5 5 13 -6 9 -4 9 8 -1
13 -10 17 -10 22 3 3 10 11 13 18 9 8 -5 7 0 -2 11 -14 17 -14 18 7 6 20 -10
22 -9 16 5 -4 11 -2 15 4 11 5 -3 20 5 32 19 12 14 27 22 33 18 7 -5 9 0 6 14
-3 12 -3 21 1 20 14 -4 51 14 46 23 -4 5 -1 9 5 9 6 0 8 4 5 10 -3 5 0 7 8 4
8 -3 20 3 28 13 12 16 12 17 -1 8 -9 -5 -7 -2 5 9 11 10 19 23 17 27 -2 8 13
13 31 10 4 -1 3 8 -3 20 -10 18 -10 19 8 10 17 -9 19 -7 14 16 -4 21 -2 25 11
20 11 -4 14 -2 11 7 -3 7 2 16 11 20 13 4 14 10 5 26 -8 16 -8 20 2 18 7 -2
12 3 10 10 -1 6 3 12 9 12 5 0 7 5 4 10 -3 6 -1 10 6 10 8 0 7 5 -2 17 -13 15
-12 15 11 3 23 -12 24 -12 11 3 -11 14 -11 17 0 17 11 0 11 2 1 8 -18 12 -4
42 16 34 14 -5 15 -3 5 9 -10 13 -10 19 1 35 10 13 11 24 5 37 -6 9 -6 17 -2
16 20 -3 27 2 13 11 -9 6 -11 10 -3 10 7 0 10 7 7 15 -4 8 -1 15 5 15 6 0 11
5 11 11 0 5 -4 8 -9 5 -5 -4 -4 5 2 18 7 13 14 23 18 20 3 -2 4 9 2 24 -4 21
-2 24 6 12 9 -12 11 -10 11 13 0 15 6 27 13 27 8 0 7 4 -3 10 -8 5 -10 10 -4
10 6 0 14 14 18 31 3 17 10 28 16 24 14 -9 12 8 -2 24 -10 11 -10 13 0 7 20
-12 35 4 20 22 -7 10 -9 14 -4 10 4 -3 16 1 25 10 13 13 15 21 7 32 -8 12 -7
13 3 3 7 -6 19 -9 26 -7 7 3 16 1 20 -5 4 -7 0 -8 -11 -4 -12 4 -15 3 -10 -5
4 -7 14 -12 22 -12 12 0 12 -4 4 -20 -8 -16 -8 -20 2 -18 8 2 13 -6 12 -19 0
-12 2 -22 5 -21 21 2 28 -5 26 -27 -2 -14 1 -25 7 -25 6 0 5 -6 -2 -15 -9 -10
-9 -15 -1 -15 6 0 11 -5 11 -11 0 -5 -4 -7 -10 -4 -6 3 -7 -1 -4 -9 3 -9 11
-13 18 -10 6 3 2 -2 -8 -10 -13 -11 -15 -16 -6 -16 7 0 10 -3 7 -7 -4 -3 -1
-13 6 -21 10 -13 9 -15 -6 -9 -15 6 -16 4 -7 -13 6 -11 8 -26 4 -32 -4 -6 -3
-8 4 -4 7 4 8 -3 2 -25 -8 -28 -8 -30 8 -17 15 12 15 11 -1 -14 -12 -19 -14
-29 -5 -34 7 -5 8 -3 3 6 -5 9 -4 11 4 6 9 -6 9 -11 0 -22 -6 -8 -7 -14 -2
-14 14 0 8 -47 -8 -66 -10 -12 -9 -13 5 -8 18 7 22 -11 5 -21 -6 -5 -4 -12 8
-22 10 -8 13 -12 6 -9 -6 4 -14 2 -18 -4 -3 -5 -1 -10 5 -10 7 0 9 -7 6 -16
-3 -8 -2 -12 4 -9 6 3 10 1 10 -4 0 -6 -5 -11 -11 -11 -8 0 -7 -6 2 -17 10
-11 10 -14 2 -9 -7 4 -13 2 -13 -3 0 -6 6 -11 13 -12 6 0 3 -4 -8 -9 -16 -7
-17 -9 -3 -9 9 -1 20 -6 24 -13 4 -6 3 -8 -4 -4 -7 4 -10 -1 -9 -14 1 -11 4
-20 7 -20 10 0 6 -40 -5 -40 -5 0 -3 -5 6 -10 10 -6 15 -18 12 -34 -3 -13 0
-27 7 -31 8 -5 8 -11 -2 -23 -11 -13 -11 -14 1 -8 9 6 12 5 9 -5 -3 -8 2 -20
11 -27 9 -8 11 -11 6 -8 -6 2 -11 -4 -11 -14 0 -11 2 -17 5 -15 2 3 10 0 18
-6 11 -10 11 -15 1 -27 -10 -13 -10 -14 0 -8 8 5 12 0 12 -13 0 -12 5 -21 11
-21 5 0 7 -4 4 -10 -3 -5 2 -10 12 -10 15 0 16 -2 3 -10 -14 -9 -7 -15 14 -11
5 1 6 -5 3 -14 -4 -8 -2 -15 4 -15 6 0 8 -4 4 -9 -3 -5 -1 -12 5 -16 6 -4 8
-11 5 -16 -4 -5 2 -9 12 -9 15 0 16 -2 3 -10 -13 -9 -13 -10 0 -10 8 0 21 -10
29 -22 l14 -23 -24 20 -24 20 15 -20 c8 -11 21 -24 28 -28 7 -5 10 -12 7 -18
-4 -5 -1 -9 4 -9 6 0 11 -5 11 -11 0 -7 8 -18 18 -25 16 -13 16 -14 -3 -8 -13
4 -9 -3 13 -21 28 -23 31 -29 20 -43 -7 -9 -8 -13 -3 -10 6 4 17 3 25 -3 11
-6 11 -9 2 -9 -8 0 -4 -9 10 -24 13 -13 26 -22 29 -20 4 2 6 -4 5 -14 0 -10 5
-16 13 -14 12 3 12 0 1 -13 -11 -13 -10 -15 2 -10 8 3 21 -1 28 -10 11 -13 10
-15 -6 -9 -15 5 -14 3 4 -10 12 -10 20 -21 17 -26 -3 -4 4 -6 15 -3 15 4 19 2
14 -10 -3 -8 0 -18 7 -23 8 -5 10 -3 4 5 -6 10 -3 11 15 1 12 -7 25 -20 27
-30 6 -21 30 -33 45 -23 7 3 8 1 4 -5 -4 -7 -2 -12 5 -12 8 0 9 -3 0 -14 -9
-11 -6 -12 16 -8 22 4 25 2 19 -14 -4 -10 -4 -15 0 -11 4 4 13 -1 21 -11 8 -9
12 -11 8 -5 -4 9 -1 11 10 7 13 -5 13 -9 3 -22 -9 -11 -10 -14 -1 -9 7 5 21
-1 33 -13 12 -12 20 -15 20 -7 0 6 5 4 11 -6 6 -9 15 -14 21 -11 8 5 9 1 4
-12 -4 -10 -4 -15 0 -11 4 3 18 -6 32 -21 13 -15 21 -21 18 -14 -4 6 -4 12 -1
12 10 0 38 -30 28 -30 -4 0 0 -5 10 -11 9 -6 14 -16 11 -22 -4 -7 -4 -9 1 -5
4 4 15 2 24 -4 10 -8 9 -4 -3 10 -11 12 -16 22 -11 22 13 0 34 -34 35 -55 0
-13 3 -16 8 -8 5 8 13 9 22 3 13 -9 13 -10 0 -10 -8 0 1 -10 21 -23 24 -14 35
-28 33 -40 -2 -15 0 -16 14 -5 12 10 14 10 8 1 -4 -8 -2 -13 4 -13 7 0 9 -9 6
-22 -3 -13 -3 -17 0 -10 3 6 10 12 15 12 6 0 8 -4 5 -9 -3 -5 1 -11 9 -15 8
-3 15 -13 15 -21 0 -9 4 -13 10 -10 6 3 10 -1 10 -9 0 -9 8 -16 18 -16 14 0
15 -2 2 -10 -11 -7 -12 -10 -2 -10 7 0 20 -6 28 -14 16 -17 19 -30 4 -21 -16
10 -11 -1 7 -16 11 -10 14 -10 9 -2 -4 7 -3 13 1 13 13 0 43 -56 35 -65 -4 -5
1 -5 10 -2 13 4 16 1 13 -14 -4 -17 -2 -19 11 -8 12 10 13 9 8 -6 -4 -10 -1
-21 7 -26 8 -4 15 -14 15 -21 4 -28 17 -58 26 -58 5 0 6 5 2 12 -4 6 -3 8 3 5
6 -4 9 -20 7 -35 -2 -19 4 -37 16 -50 22 -23 26 -37 8 -26 -6 4 -3 -4 8 -18
10 -14 21 -24 23 -22 2 2 -2 12 -10 21 -13 16 -12 17 3 5 9 -7 20 -27 23 -43
4 -16 11 -29 17 -29 6 0 8 -7 5 -15 -4 -8 -1 -17 5 -21 7 -5 8 -2 3 6 -5 8 -4
11 3 6 6 -4 9 -13 5 -21 -3 -10 1 -15 13 -15 16 0 17 -2 4 -10 -11 -7 -11 -10
-2 -10 7 0 10 -4 7 -10 -3 -5 1 -10 9 -10 9 0 16 -8 16 -18 0 -23 33 -55 45
-45 5 5 4 1 -3 -8 -12 -16 -7 -29 12 -29 6 0 4 5 -4 11 -13 9 -13 10 0 6 8 -2
14 -12 12 -22 -2 -10 1 -14 7 -10 6 3 11 -2 11 -13 0 -23 26 -37 34 -19 3 7 3
2 0 -10 -4 -17 -1 -23 11 -23 9 0 13 -4 10 -10 -3 -5 -1 -10 5 -10 7 0 10 -7
7 -15 -4 -8 -1 -17 5 -21 6 -4 8 -3 5 3 -4 6 -1 13 6 16 8 3 14 -3 14 -15 2
-24 21 -48 39 -48 7 0 16 -5 20 -12 5 -7 3 -8 -6 -3 -9 5 -11 4 -6 -3 4 -7 13
-12 21 -12 8 0 17 -4 20 -10 3 -6 -1 -7 -12 -4 -15 5 -14 3 2 -7 11 -7 24 -16
30 -21 5 -5 19 -16 30 -24 11 -9 15 -13 8 -10 -6 4 -15 1 -19 -5 -4 -7 -3 -9
4 -5 6 3 17 -1 25 -9 12 -11 17 -12 20 -2 3 7 6 4 6 -6 1 -12 5 -16 14 -11 8
5 7 2 -2 -9 -12 -15 -12 -17 4 -11 14 6 16 4 10 -7 -7 -12 -6 -12 7 -1 13 11
16 10 14 -4 0 -9 6 -19 14 -21 13 -4 13 -3 0 6 -12 8 -11 10 7 8 12 0 19 -5
17 -9 -8 -13 34 -51 50 -45 10 4 13 1 10 -8 -4 -10 1 -12 18 -8 17 3 19 2 9
-5 -10 -8 -6 -11 18 -17 19 -4 31 -13 31 -23 0 -15 2 -15 10 -2 8 12 10 12 10
1 0 -10 3 -11 14 -2 12 10 13 8 9 -9 -4 -16 -2 -19 12 -13 14 5 16 3 10 -8 -7
-11 -5 -11 10 1 14 11 17 12 10 1 -6 -11 -1 -13 23 -9 27 4 30 2 22 -13 -8
-14 -6 -16 10 -12 15 4 20 0 20 -13 0 -11 4 -15 8 -9 4 6 13 11 20 13 10 2 10
-2 2 -18 -10 -18 -9 -19 15 -10 18 7 24 6 22 -3 -1 -7 10 -13 26 -15 15 -2 27
-8 27 -13 0 -5 9 -9 20 -9 11 0 20 -5 20 -11 0 -5 -4 -7 -10 -4 -5 3 -10 1
-10 -5 0 -7 8 -9 20 -5 15 5 20 2 20 -10 0 -12 6 -16 20 -12 11 3 18 1 14 -4
-3 -5 0 -9 6 -9 6 0 8 -5 4 -12 -5 -8 0 -7 11 2 17 14 18 13 12 -4 -6 -14 -4
-17 9 -12 11 4 15 2 11 -8 -4 -11 -1 -13 10 -9 12 5 14 1 9 -18 -3 -13 -3 -18
0 -11 3 6 10 12 15 12 14 0 48 -38 41 -46 -4 -4 -1 -4 6 0 7 5 11 15 8 25 -4
11 -2 10 10 -4 10 -12 14 -14 11 -5 -2 8 0 23 5 34 6 10 6 16 1 13 -5 -3 -9 3
-9 13 0 13 4 16 11 10 8 -7 12 -5 12 5 0 8 -4 15 -8 15 -9 0 -5 27 6 37 4 4 5
3 1 -4 -3 -6 -2 -14 3 -17 5 -3 7 8 6 24 -1 17 1 33 6 36 14 8 11 26 -3 19 -7
-4 -6 -1 2 7 9 7 15 20 15 28 0 8 6 21 15 28 13 10 12 11 -5 6 -18 -6 -18 -5
3 15 22 22 30 37 13 27 -5 -4 -7 3 -4 14 3 11 10 17 17 13 6 -4 5 1 -3 11 -11
13 -11 16 -2 14 8 -2 15 8 17 22 3 13 8 27 13 30 4 3 7 13 5 23 -2 15 0 16 14
5 13 -11 14 -11 8 0 -5 8 -1 22 11 34 10 12 12 18 6 14 -7 -4 -13 -3 -13 3 0
5 10 13 21 16 17 6 18 9 8 16 -11 6 -10 9 4 15 9 3 14 10 11 15 -3 5 0 9 5 9
6 0 11 7 11 15 0 8 5 15 11 15 6 0 9 7 6 14 -4 11 -1 13 10 9 11 -4 14 -2 9 5
-4 7 -2 12 4 12 6 0 8 5 4 13 -5 7 0 6 11 -3 10 -8 16 -10 12 -4 -3 6 5 21 18
34 13 13 22 26 20 30 -3 4 2 13 10 20 13 11 15 10 9 -6 -5 -18 -5 -18 6 -1 6
9 8 21 5 27 -3 5 3 7 14 5 15 -3 18 0 14 12 -4 11 -2 14 5 9 7 -4 12 -1 12 8
0 8 5 18 12 22 8 5 9 2 5 -10 -4 -10 -3 -15 3 -11 6 3 10 12 10 20 0 8 5 17
12 21 7 5 8 3 3 -6 -6 -9 -4 -11 4 -6 7 5 10 14 7 22 -3 9 0 11 11 7 11 -4 14
-2 9 5 -5 8 -2 10 9 6 12 -5 16 -2 13 12 -2 12 4 19 17 22 42 7 63 23 58 46
-4 17 -3 18 6 6 9 -13 14 -12 33 9 13 13 17 20 9 16 -10 -6 -12 -4 -7 4 6 9
11 9 24 -1 12 -10 14 -10 8 -1 -4 7 -2 21 4 30 11 17 11 17 6 0 -3 -11 0 -17
9 -17 9 0 12 6 8 17 -5 13 -2 15 11 10 12 -5 20 1 28 18 9 20 14 22 25 14 10
-9 12 -9 8 3 -5 14 24 32 47 29 3 0 5 11 4 24 -3 21 -1 23 16 14 10 -5 18 -6
17 -2 -5 28 1 35 19 22 9 -7 14 -10 10 -5 -9 10 19 39 30 32 5 -3 9 1 9 9 0 8
-5 11 -10 8 -6 -3 -7 -1 -3 5 4 7 14 12 22 12 8 0 14 7 14 16 0 8 5 12 10 9 6
-3 10 -1 10 5 0 7 6 10 14 7 11 -4 13 1 11 21 -2 15 -2 21 1 15 6 -14 26 -18
22 -5 -4 11 38 62 51 62 6 0 10 3 10 8 -3 20 2 25 12 12 9 -12 10 -11 6 8 -4
17 -1 22 14 22 10 0 19 5 19 11 0 5 -6 7 -12 4 -7 -4 -5 0 4 8 10 8 15 17 11
21 -4 4 2 9 14 12 15 4 20 11 16 22 -4 10 -3 14 2 10 11 -10 37 11 29 24 -3 5
2 18 12 29 13 15 14 19 3 16 -8 -2 -11 -2 -6 0 4 3 5 9 2 14 -4 5 1 6 9 3 10
-4 14 0 11 13 -1 10 9 29 24 42 16 15 19 22 9 18 -10 -3 -20 -2 -23 3 -4 6 1
10 9 10 8 0 18 5 22 12 4 6 3 8 -4 4 -7 -4 -10 2 -9 14 1 12 16 30 34 41 18
12 31 25 27 30 -3 5 -7 9 -10 9 -3 0 -2 -5 2 -12 4 -7 3 -8 -5 -4 -6 4 -9 12
-5 17 3 5 10 7 15 3 5 -3 17 0 25 7 12 10 12 14 2 21 -8 5 0 6 20 4 25 -3 30
-1 22 9 -7 8 -7 15 -1 19 5 3 11 2 13 -2 1 -5 12 0 23 11 11 11 13 16 5 12 -8
-5 -4 4 9 18 25 28 42 38 22 13 -9 -11 -9 -16 0 -22 7 -4 10 -3 6 2 -7 12 19
48 31 40 5 -3 9 1 9 9 0 8 -5 11 -11 8 -6 -3 -1 4 11 16 12 11 26 21 30 21 4
0 2 -5 -5 -12 -20 -20 -14 -30 6 -11 11 10 17 21 15 25 -2 5 1 8 7 8 6 0 9 4
5 9 -7 12 29 33 39 24 5 -6 10 20 7 39 0 4 5 5 13 2 8 -3 17 0 22 7 4 8 3 10
-4 5 -7 -4 -12 -2 -12 3 0 11 13 15 40 11 10 -1 9 3 -5 14 -20 15 -20 15 1 11
17 -3 21 1 18 21 -1 13 2 24 7 24 5 0 9 -5 9 -11 0 -5 5 -7 10 -4 6 4 8 10 5
15 -3 4 2 11 11 14 9 4 14 13 10 21 -3 9 1 15 10 15 11 0 14 6 10 16 -3 8 -2
13 3 10 12 -8 42 28 39 45 -2 8 2 13 9 12 7 -2 10 6 8 18 -3 13 5 29 20 44 14
12 25 28 25 35 0 7 7 10 16 6 12 -4 15 -2 10 9 -3 9 0 15 10 15 8 0 12 5 9 10
-3 5 -1 10 4 10 6 0 11 -6 11 -12 0 -7 7 -2 16 10 8 12 20 19 26 16 7 -4 8 -2
4 5 -6 9 -11 9 -21 1 -9 -8 -15 -8 -20 0 -4 6 -3 10 2 9 14 -4 43 13 38 21 -3
5 4 12 16 15 17 6 19 9 8 16 -11 7 -10 9 4 9 9 0 16 6 15 13 -2 6 3 11 11 9
11 -2 12 0 2 11 -9 12 -8 16 5 21 9 3 14 13 10 21 -3 8 0 14 7 12 7 -1 11 6
10 16 -1 12 4 17 14 13 8 -3 11 -2 8 3 -3 5 -1 13 5 16 8 5 8 11 0 20 -8 10
-8 15 1 21 8 5 9 3 4 -6 -5 -9 -4 -11 3 -6 7 4 12 16 12 27 0 10 5 19 11 19 5
0 7 5 4 10 -3 6 -2 10 3 10 6 0 8 8 5 19 -3 10 1 22 8 26 8 6 10 4 4 -5 -5 -9
-4 -11 4 -6 9 6 9 11 0 22 -7 8 -7 14 -1 14 5 0 13 7 16 16 5 12 3 14 -7 8 -7
-5 -5 -2 4 7 13 12 15 19 7 27 -8 8 -7 13 6 18 14 5 15 9 5 15 -10 6 -7 11 11
18 14 5 19 10 13 10 -14 1 -13 27 1 50 7 11 6 12 -5 6 -12 -7 -12 -6 -1 7 10
13 10 17 0 21 -10 4 -10 6 1 6 11 1 11 4 1 16 -11 13 -10 14 1 10 11 -4 14 6
12 51 -1 31 -8 64 -15 73 -10 13 -10 14 2 4 21 -19 32 -15 18 6 -9 15 -9 23 3
37 12 15 12 16 0 9 -11 -6 -13 -3 -9 12 3 11 1 28 -5 38 -7 13 -6 16 3 10 8
-5 11 -3 8 6 -3 8 -12 13 -19 11 -11 -2 -11 1 1 10 8 7 16 19 18 27 3 12 0 12
-12 2 -12 -10 -14 -9 -9 8 3 12 10 18 17 14 6 -3 3 2 -6 13 -11 13 -14 24 -8
33 5 9 3 23 -6 37 -10 14 -11 24 -5 28 6 4 8 13 4 21 -3 8 1 15 8 15 7 0 9 3
6 6 -4 4 -14 1 -24 -7 -11 -9 -14 -10 -9 -1 4 7 2 12 -6 12 -10 0 -10 2 1 9
11 7 10 11 -5 21 -13 8 -14 10 -3 7 12 -4 19 5 28 34 7 22 9 44 6 49 -3 5 0
12 6 16 8 4 9 3 5 -4 -4 -7 -2 -12 5 -12 6 0 9 8 6 20 -3 11 -2 18 2 16 4 -3
13 4 20 16 7 11 8 17 2 13 -6 -3 -11 -1 -11 4 0 6 7 11 15 11 8 0 16 5 16 10
1 6 2 16 3 23 1 6 -2 21 -7 32 -10 18 -9 19 8 5 14 -11 17 -11 11 -1 -5 8 -3
17 5 22 10 6 11 9 2 9 -7 0 -13 5 -13 11 0 5 5 7 12 3 6 -4 8 -3 5 2 -3 6 -2
16 3 24 5 8 5 22 -1 32 -8 14 -6 18 8 19 16 0 16 1 -2 9 -12 5 -14 9 -6 9 8 1
11 4 8 8 -4 3 -1 13 6 21 10 13 9 14 -2 7 -11 -6 -13 -4 -8 7 3 9 0 21 -6 28
-7 7 -7 10 -2 7 6 -3 17 -2 25 4 12 7 11 9 -5 9 -15 0 -17 2 -6 9 11 7 11 9 0
13 -11 4 -10 10 5 27 14 15 15 20 5 16 -10 -4 -15 1 -15 15 0 14 5 19 15 15
11 -4 11 -2 3 8 -7 8 -9 17 -5 20 3 4 2 7 -4 7 -11 0 -11 29 1 49 5 8 4 16 -4
21 -8 5 -10 15 -5 26 11 27 13 54 3 48 -9 -6 -11 30 -1 39 8 8 11 77 4 72 -4
-1 -12 4 -19 11 -11 13 -9 14 15 10 23 -4 25 -3 13 7 -8 7 -16 19 -18 27 -3
10 3 9 19 -5 l22 -20 -18 30 c-10 17 -12 24 -5 18 8 -7 19 -13 24 -13 6 0 4 5
-4 10 -13 8 -12 11 4 23 17 13 17 14 2 20 -11 5 -15 3 -10 -5 4 -7 3 -8 -4 -4
-20 12 -13 29 8 23 11 -3 20 -1 20 4 0 5 -4 9 -8 9 -5 0 -9 7 -9 15 0 12 3 12
16 2 12 -10 14 -9 8 5 -3 10 -2 20 4 23 5 4 7 17 5 30 -3 17 -1 22 10 18 8 -3
14 0 14 6 0 6 -5 11 -11 11 -5 0 -8 4 -4 10 3 5 13 6 23 3 13 -4 13 -2 -3 10
-11 9 -15 17 -8 17 6 0 9 9 6 23 -4 18 -3 19 7 7 9 -12 10 -11 5 9 -5 15 -3
21 3 17 11 -6 7 38 -4 56 -3 4 3 8 13 8 15 0 15 2 4 9 -12 8 -12 12 -2 24 9
11 9 17 1 22 -6 4 -9 13 -7 19 3 7 1 19 -3 26 -6 9 -3 18 8 27 15 11 14 12 -6
8 -20 -4 -22 -2 -12 10 10 12 10 15 -1 15 -12 0 -12 2 0 9 11 7 11 9 0 14 -11
4 -11 6 -1 6 9 1 6 8 -7 22 -22 23 -18 49 8 49 14 1 13 3 -3 15 -11 8 -14 15
-7 15 7 0 10 4 7 8 -3 5 8 21 25 36 16 15 29 33 29 39 0 7 -4 6 -10 -3 -13
-20 -13 -8 1 27 19 49 19 62 1 56 -15 -6 -15 -4 -4 9 9 11 10 18 2 23 -5 3
-10 11 -10 16 0 6 5 7 12 3 7 -4 8 -3 4 4 -4 7 -14 12 -23 12 -13 0 -13 3 -3
15 9 11 9 15 1 15 -7 0 -10 4 -7 8 2 4 0 14 -6 22 -8 12 -9 12 -4 -2 3 -10 1
-20 -3 -23 -5 -3 -8 9 -7 26 2 23 -3 33 -18 39 -12 4 -24 6 -28 3 -4 -2 -5 3
-2 11 3 9 10 16 16 16 5 0 2 7 -6 16 -12 11 -13 20 -6 34 7 13 7 21 -2 26 -6
4 -8 3 -4 -4 3 -6 3 -13 -2 -16 -5 -3 -7 23 -6 57 3 82 3 79 14 72 6 -3 7 1 4
9 -3 9 -9 14 -13 11 -4 -2 -8 2 -8 10 0 8 4 12 9 9 8 -5 9 -1 12 34 0 11 7 26
13 34 7 8 10 17 7 21 -3 3 5 3 18 0 18 -4 20 -3 8 6 -15 10 -13 12 12 15 6 0
13 7 16 15 3 9 0 11 -9 6 -8 -5 -11 -4 -6 1 9 9 13 10 45 13 15 1 15 3 2 11
-13 8 -12 10 3 10 9 0 17 6 17 13 0 9 3 8 9 -2 6 -9 11 -10 15 -2 4 6 4 11 1
11 -3 0 0 6 7 14 7 8 16 12 21 9 4 -2 7 1 7 6 0 6 4 11 10 11 5 0 7 -8 3 -17
-3 -10 -3 -15 1 -11 4 3 9 14 11 25 1 10 8 17 15 15 7 -2 10 3 7 11 -3 8 3 14
16 15 12 0 23 6 25 12 2 5 8 8 13 4 8 -5 13 9 10 28 0 5 2 7 7 6 4 -1 17 3 30
10 12 7 27 10 32 7 6 -3 10 1 10 10 0 8 11 20 24 25 13 5 28 15 32 22 5 9 2 8
-12 -2 -17 -14 -18 -14 -6 2 8 10 20 14 29 11 11 -4 14 -2 9 5 -7 11 6 17 27
13 5 -1 6 3 2 9 -6 9 7 14 27 11 5 0 7 2 7 7 -3 17 2 33 9 29 9 -6 33 19 25
27 -4 3 1 6 10 6 10 0 17 5 17 11 0 5 -6 7 -12 3 -9 -5 -8 -2 1 10 8 9 20 15
28 12 8 -3 11 -1 8 4 -3 6 0 10 7 10 9 0 9 3 -2 10 -9 6 -10 10 -3 10 6 0 15
9 18 20 3 11 13 20 21 20 8 0 14 7 14 16 0 8 4 13 9 9 12 -7 34 32 26 45 -3 6
-2 10 4 10 5 0 8 9 6 20 -2 12 0 18 6 15 5 -4 7 -10 4 -15 -3 -5 -1 -12 5 -15
6 -4 10 -3 9 2 -4 21 2 34 13 27 7 -4 8 -3 4 5 -4 6 -12 9 -17 6 -5 -3 -6 1
-3 9 3 9 10 13 15 10 8 -5 13 9 10 29 0 4 3 7 8 7 6 0 8 10 6 23 -3 14 3 28
17 39 19 14 20 18 9 32 -12 14 -12 16 2 11 20 -8 34 15 16 26 -8 5 -9 9 -3 9
12 0 27 36 24 59 -1 8 3 10 11 5 8 -4 10 -3 5 4 -4 7 -9 22 -11 33 -4 21 -4
21 17 3 13 -12 18 -13 12 -4 -5 8 -9 22 -9 30 0 8 -4 20 -8 27 -4 6 -3 14 3
18 6 4 8 10 5 15 -3 5 0 12 6 16 8 4 9 3 5 -4 -4 -7 -2 -12 3 -12 12 0 14 13
4 24 -4 3 -7 15 -8 26 -1 14 2 17 10 10 10 -8 11 -1 5 30 -5 26 -3 41 4 43 8
3 7 10 -1 25 -8 13 -9 23 -3 27 5 3 6 13 3 22 -5 12 -3 14 7 8 10 -6 11 -4 4
6 -11 19 -14 40 -4 34 4 -3 11 2 14 11 3 8 2 12 -4 9 -6 -3 -10 -1 -10 4 0 6
4 11 10 11 5 0 7 7 3 16 -5 13 -7 13 -14 2 -6 -9 -9 -9 -9 -1 0 7 8 17 18 22
9 6 12 11 5 11 -7 0 -10 7 -7 15 4 8 9 13 13 11 13 -8 3 54 -11 71 -8 10 -8
14 -1 10 6 -4 14 -3 18 3 3 5 0 10 -7 10 -11 0 -10 2 0 9 11 6 10 10 -5 15
-17 7 -17 8 1 22 11 8 15 14 9 14 -6 0 -14 7 -17 16 -6 15 -4 15 11 3 17 -13
17 -13 0 14 -16 25 -16 28 -2 34 13 4 14 8 4 14 -15 9 -19 48 -6 56 6 3 7 1 3
-5 -3 -6 -2 -13 3 -16 10 -7 9 20 -2 30 -12 12 -8 46 5 38 7 -4 8 -3 4 4 -4 7
-9 22 -11 34 -3 12 -10 25 -17 30 -10 6 -9 8 2 8 13 0 13 1 0 10 -11 7 -12 10
-2 10 10 0 10 4 -2 15 -11 12 -13 22 -6 40 6 15 6 27 -1 30 -5 4 -7 11 -4 16
4 5 -1 12 -9 15 -9 3 -16 10 -16 16 0 5 6 6 13 2 9 -6 9 -5 0 8 -7 8 -9 19 -5
23 4 5 -1 5 -11 2 -15 -6 -17 -3 -12 13 6 18 3 20 -17 17 -13 -2 -18 -2 -11 0
6 2 11 13 10 23 -1 18 -3 19 -27 3 -14 -9 -22 -12 -18 -8 4 5 2 15 -5 23 -9
13 -9 14 1 8 7 -4 12 -2 12 4 0 7 -8 9 -20 5 -16 -5 -19 -3 -13 12 4 13 0 11
-16 -7 -15 -16 -21 -19 -17 -8 3 12 1 15 -9 11 -8 -3 -13 -9 -10 -13 3 -5 0
-12 -6 -16 -8 -4 -9 -3 -5 4 4 7 2 12 -4 12 -6 0 -8 5 -4 13 5 8 2 8 -9 -2
-20 -16 -23 -25 -4 -15 6 4 8 3 4 -2 -4 -4 -24 -7 -43 -5 -24 2 -36 -2 -40
-13 -3 -9 -10 -16 -16 -16 -5 0 -7 4 -4 8 2 4 1 14 -5 22 -7 12 -9 10 -9 -8 0
-20 -3 -21 -20 -12 -11 6 -20 7 -19 3 4 -22 -3 -25 -16 -7 -15 19 -15 19 -8
-1 3 -11 3 -17 -2 -13 -4 4 -16 -3 -27 -15 -11 -12 -17 -17 -13 -10 3 7 -3 17
-14 23 -17 9 -19 8 -15 -5 4 -8 1 -15 -5 -15 -6 0 -11 6 -11 13 0 8 -3 9 -8 1
-4 -6 -18 -17 -32 -24 -23 -12 -24 -12 -11 3 17 21 8 22 -13 1 -9 -9 -16 -11
-16 -4 0 6 -5 8 -10 5 -6 -4 -8 -10 -5 -15 3 -5 2 -11 -3 -14 -13 -8 -11 27 2
44 10 13 9 13 -6 1 -10 -7 -18 -19 -18 -26 0 -9 -8 -11 -22 -7 -15 4 -19 2
-13 -8 5 -8 3 -11 -6 -8 -8 3 -13 11 -11 17 1 7 -2 10 -8 6 -6 -3 -8 -11 -5
-16 4 -5 2 -9 -4 -9 -5 0 -13 5 -16 10 -4 6 -11 7 -17 4 -7 -5 -4 -12 8 -21
19 -14 19 -14 -1 -11 -11 2 -23 8 -27 13 -5 6 -8 5 -8 -2 0 -7 -9 -13 -21 -13
-12 0 -17 -4 -13 -11 3 -6 -6 -3 -22 7 -19 13 -25 14 -19 5 6 -11 4 -13 -8 -8
-11 4 -14 2 -10 -9 4 -11 9 -12 18 -4 10 8 15 8 21 -1 4 -7 3 -9 -4 -5 -6 3
-13 2 -17 -4 -4 -7 -13 -7 -26 0 -11 6 -16 16 -13 22 4 7 3 8 -4 4 -9 -5 -9
-13 -1 -29 l12 -22 -23 20 c-13 11 -20 14 -16 8 4 -7 3 -13 -3 -13 -5 0 -12
-8 -14 -17 -4 -17 -5 -17 -6 0 -1 23 -10 22 -38 -5 -13 -12 -23 -16 -23 -9 0
9 -3 9 -14 -1 -8 -7 -12 -16 -10 -20 6 -9 -24 -4 -33 7 -4 4 -2 5 6 0 10 -6
12 -4 7 4 -6 9 -12 9 -25 -3 -10 -9 -20 -14 -23 -11 -3 3 -17 -6 -32 -20 -15
-14 -36 -25 -47 -25 -11 0 -18 -3 -16 -7 3 -5 -2 -15 -11 -23 -14 -13 -15 -12
-9 4 6 15 5 17 -6 8 -8 -7 -17 -9 -20 -5 -4 3 -10 -2 -13 -11 -5 -14 -9 -15
-15 -5 -4 8 -11 11 -14 7 -3 -3 1 -13 10 -22 9 -9 12 -16 6 -16 -5 0 -13 5
-17 11 -4 8 -9 7 -15 -2 -6 -10 -9 -11 -9 -1 0 6 -8 12 -17 12 -15 0 -16 -2
-3 -10 8 -5 11 -10 5 -11 -5 0 -1 -4 10 -8 15 -7 10 -9 -20 -9 -21 0 -41 -5
-43 -11 -2 -6 -7 -9 -12 -6 -4 3 -14 -2 -21 -11 -10 -13 -10 -17 2 -26 11 -8
11 -9 -3 -5 -9 3 -19 1 -21 -6 -2 -7 -8 -8 -13 -4 -5 4 -2 12 6 17 8 5 12 12
8 15 -3 3 -16 -8 -28 -24 -19 -27 -19 -30 -3 -25 16 6 15 5 -2 -9 -11 -8 -24
-13 -29 -9 -5 3 -7 -2 -3 -11 4 -11 2 -14 -9 -10 -8 3 -14 2 -13 -3 3 -21 -2
-24 -22 -13 -16 8 -24 8 -33 -1 -8 -8 -7 -10 5 -5 19 7 35 -10 19 -20 -6 -4
-8 -10 -5 -15 3 -5 1 -12 -5 -15 -6 -4 -9 -1 -8 6 2 9 -10 13 -35 14 -42 1
-57 16 -49 48 4 14 2 18 -7 12 -10 -6 -11 -3 -2 13 14 26 14 35 1 27 -6 -4
-10 7 -10 26 0 18 -8 41 -17 52 -10 11 -12 17 -5 13 17 -10 15 4 -5 26 -16 18
-16 18 3 12 17 -7 17 -6 5 9 -13 16 -8 22 13 18 5 -1 4 5 -4 13 -7 9 -20 16
-29 17 -12 0 -11 2 4 9 11 5 14 9 8 9 -7 1 -12 11 -12 24 1 12 -2 32 -5 45 -3
12 -1 20 4 17 4 -3 6 4 3 15 -3 11 -13 20 -23 20 -10 0 -20 6 -23 13 -3 9 -10
9 -28 -2 -13 -7 -21 -10 -17 -6 4 5 3 14 -2 20 -7 9 -6 16 4 25 13 10 15 8 11
-9 -2 -12 0 -19 5 -16 12 7 5 40 -8 41 -26 3 -26 6 -3 15 18 7 21 12 12 22 -8
10 -6 19 5 35 14 20 13 21 -2 15 -15 -5 -14 -3 2 23 11 15 14 25 9 22 -7 -4
-11 7 -10 31 0 30 3 37 15 33 12 -5 13 -3 2 10 -13 16 -12 44 1 65 4 6 2 15
-4 19 -8 5 -9 3 -4 -6 5 -9 4 -11 -3 -6 -7 4 -8 15 -2 30 5 15 5 27 -3 35 -8
8 -6 11 9 12 10 0 13 3 7 6 -7 2 -13 16 -13 29 0 14 -4 23 -8 20 -11 -7 -9 25
3 44 5 9 4 15 -3 18 -7 2 -12 10 -12 18 0 10 5 12 13 8 8 -6 8 -3 -2 9 -7 9
-11 24 -7 32 3 10 -1 15 -11 15 -15 0 -15 2 2 13 13 10 15 16 6 21 -6 4 -8 13
-4 19 4 7 -2 5 -12 -3 -19 -15 -19 -14 -1 14 10 16 13 25 7 22 -7 -4 -11 2
-11 16 -1 13 -1 35 -1 50 -1 16 -5 25 -11 22 -6 -4 -8 -1 -6 7 3 8 -2 22 -10
32 -15 16 -14 17 4 12 19 -7 19 -6 0 9 -15 12 -16 16 -5 16 10 0 11 2 2 8 -7
4 -14 19 -16 32 -2 13 -12 27 -23 31 -18 7 -18 8 1 9 19 1 19 1 2 11 -15 9
-16 13 -5 27 10 12 10 14 1 8 -9 -5 -13 -1 -13 13 0 11 -5 23 -10 26 -6 4 -8
10 -5 14 2 5 -5 17 -18 27 l-22 19 20 -25 20 -25 -22 19 c-19 16 -21 22 -10
34 9 13 9 14 0 8 -8 -4 -13 -1 -13 8 0 9 -4 16 -10 16 -5 0 -10 4 -10 10 0 14
-48 59 -56 51 -4 -3 -1 5 6 18 6 13 8 21 2 17 -5 -3 -19 3 -31 13 -22 19 -29
37 -9 25 7 -4 8 -3 4 5 -4 6 -12 9 -17 6 -5 -4 -16 0 -23 8 -11 11 -12 17 -3
26 9 9 6 11 -16 7 -25 -4 -27 -3 -15 11 9 12 10 15 0 9 -7 -4 -15 -1 -18 8 -3
9 -10 16 -16 16 -5 0 -6 -6 -2 -12 4 -7 -5 -2 -19 11 -30 27 -37 41 -9 20 15
-12 16 -12 5 2 -7 9 -10 18 -7 22 3 3 -3 3 -15 0 -20 -5 -26 5 -22 30 1 5 -3
6 -9 2 -6 -3 -8 -12 -4 -18 3 -7 0 -5 -8 4 -7 9 -19 14 -26 12 -7 -3 -10 1 -6
11 6 15 -12 22 -40 17 -5 -1 -3 6 5 15 13 16 12 16 -8 5 -21 -11 -23 -9 -23
11 -1 23 -1 23 -16 3 -16 -20 -16 -20 -9 2 5 19 3 22 -10 17 -11 -5 -25 3 -41
20 -14 14 -29 26 -35 26 -6 0 -7 6 -3 13 5 7 0 6 -11 -3 -17 -13 -18 -13 -13
1 5 12 1 15 -18 11 -14 -2 -24 0 -24 7 0 7 5 9 10 6 16 -10 11 1 -7 16 -10 8
-14 9 -10 2 4 -6 3 -14 -3 -18 -5 -3 -10 -1 -10 5 0 6 -5 8 -12 4 -9 -5 -8 -2
1 9 12 15 12 17 -3 11 -11 -4 -23 1 -32 12 -9 11 -13 14 -10 7 4 -6 2 -15 -4
-18 -6 -4 -10 -3 -9 2 1 4 1 15 0 23 -1 13 -2 13 -11 0 -8 -12 -10 -12 -10 -1
0 8 -7 11 -20 8 -11 -3 -23 -1 -26 4 -3 5 -10 6 -16 3 -7 -4 -8 -2 -4 5 6 9
11 9 22 0 19 -15 18 -2 -1 17 -10 10 -15 11 -15 3 0 -8 -5 -8 -17 2 -9 8 -14
9 -10 3 4 -7 -2 -11 -18 -11 -14 0 -25 3 -25 8 0 5 5 8 11 7 6 -2 14 4 16 12
3 9 1 11 -4 5 -12 -15 -52 -12 -63 4 -11 19 -43 24 -36 6 3 -9 0 -12 -9 -8 -8
3 -12 9 -9 14 5 9 -8 13 -40 9 -10 -1 -22 4 -27 11 -6 10 -11 10 -22 1 -12
-10 -15 -9 -19 6 -3 10 -12 19 -21 19 -8 0 -13 -6 -10 -14 7 -18 -2 -17 -21 3
-10 9 -16 11 -16 4 0 -7 -15 -3 -37 10 -21 12 -32 16 -25 9 17 -18 15 -34 -3
-19 -8 7 -15 10 -15 7 0 -3 -14 -2 -31 3 -26 8 -29 7 -18 -6 10 -12 9 -13 -5
-8 -9 3 -16 11 -16 18 0 6 -5 4 -10 -4 -8 -12 -10 -12 -10 5 -1 18 -2 18 -11
-3 -7 -19 -29 -23 -29 -6 0 3 4 2 10 -1 6 -3 7 1 4 9 -7 18 -14 21 -14 5z
m-220 -35 c0 -8 -5 -12 -10 -9 -6 4 -8 11 -5 16 9 14 15 11 15 -7z m3288
-1669 c-3 -3 -9 2 -12 12 -6 14 -5 15 5 6 7 -7 10 -15 7 -18z m-128 1 c0 -3
-4 -8 -10 -11 -5 -3 -10 -1 -10 4 0 6 5 11 10 11 6 0 10 -2 10 -4z m-6155 -36
c-3 -5 -12 -10 -18 -10 -7 0 -6 4 3 10 19 12 23 12 15 0z m6402 -87 c-4 -3 -2
-12 4 -19 7 -8 6 -14 -2 -20 -7 -4 -9 -3 -5 4 3 6 2 13 -4 17 -10 6 -5 25 7
25 4 0 3 -3 0 -7z m-5762 -83 c-3 -5 -12 -10 -18 -10 -7 0 -6 4 3 10 19 12 23
12 15 0z m4748 -5 c-3 -9 -8 -14 -10 -11 -3 3 -2 9 2 15 9 16 15 13 8 -4z
m-309 -153 c3 -5 -1 -9 -9 -9 -8 0 -12 4 -9 9 3 4 7 8 9 8 2 0 6 -4 9 -8z
m-3851 -96 c4 -10 1 -13 -8 -9 -8 3 -12 9 -9 14 7 12 11 11 17 -5z m-20 -49
c3 -8 -1 -14 -9 -14 -15 0 -18 9 -7 20 9 9 10 9 16 -6z m3657 -17 c3 -2 9 -2
13 -1 5 1 6 -3 2 -9 -3 -6 -12 -7 -18 -3 -7 4 -18 8 -25 9 -8 2 -17 5 -20 8
-5 5 32 2 48 -4z m1571 -87 c13 -16 12 -17 -3 -4 -10 7 -18 15 -18 17 0 8 8 3
21 -13z m-6701 -669 c0 -8 -19 -13 -24 -6 -3 5 1 9 9 9 8 0 15 -2 15 -3z
m6484 -209 c-4 -8 -11 -12 -16 -9 -6 4 -5 10 3 15 19 12 19 11 13 -6z m-144
-165 c0 -5 -5 -10 -11 -10 -5 0 -7 5 -4 10 3 6 8 10 11 10 2 0 4 -4 4 -10z
m-35 -40 c-3 -5 -14 -10 -23 -9 -14 0 -13 2 3 9 27 11 27 11 20 0z m-5865
-150 c0 -5 -2 -10 -4 -10 -3 0 -8 5 -11 10 -3 6 -1 10 4 10 6 0 11 -4 11 -10z
m317 -422 c-2 -12 -10 -24 -18 -26 -12 -3 -12 -2 0 6 9 7 10 12 2 16 -12 8 -6
26 10 26 5 0 7 -10 6 -22z m5083 -153 c0 -7 -30 -13 -34 -7 -3 4 4 9 15 9 10
1 19 0 19 -2z m-5120 -15 c0 -5 -4 -10 -10 -10 -5 0 -10 5 -10 10 0 6 5 10 10
10 6 0 10 -4 10 -10z m-50 -390 c-6 -11 -15 -20 -20 -20 -6 0 -2 9 7 20 10 11
19 20 21 20 1 0 -2 -9 -8 -20z m5200 -154 c0 -11 -19 -15 -25 -6 -3 5 1 10 9
10 9 0 16 -2 16 -4z m-5763 -343 c0 -9 -4 -10 -14 -2 -7 6 -13 12 -13 14 0 1
6 2 13 2 8 0 14 -6 14 -14z m5638 -141 c-3 -3 -11 0 -18 7 -9 10 -8 11 6 5 10
-3 15 -9 12 -12z m5 -37 c0 -2 -6 -8 -13 -14 -10 -8 -14 -7 -14 2 0 8 6 14 14
14 7 0 13 -1 13 -2z m-5236 -313 c3 -5 -1 -9 -9 -9 -8 0 -12 4 -9 9 3 4 7 8 9
8 2 0 6 -4 9 -8z m-16 -71 c11 -7 10 -9 -3 -14 -9 -4 -14 -3 -10 2 3 5 -1 12
-7 14 -7 3 -8 6 -3 6 6 0 16 -3 23 -8z m-30 -22 c-2 -6 -7 -10 -12 -9 -5 1
-13 -4 -18 -12 -8 -10 -9 -10 -5 2 2 8 10 14 16 13 6 -2 11 2 11 7 0 6 3 10 6
10 3 0 4 -5 2 -11z m-42 -73 c-1 -30 -4 -33 -26 -29 l-24 4 19 -23 c18 -20 18
-21 2 -8 -16 12 -19 12 -17 -1 4 -26 0 -40 -10 -34 -5 3 -10 2 -10 -4 0 -5 6
-12 13 -15 6 -3 1 -3 -13 1 -23 5 -24 4 -10 -12 13 -15 12 -19 -3 -30 -22 -16
-22 -26 1 -19 10 4 13 3 6 -3 -6 -4 -10 -16 -9 -25 2 -12 -2 -15 -13 -10 -15
5 -15 4 -2 -14 8 -10 10 -16 6 -12 -5 4 -15 3 -22 -3 -13 -11 -15 6 -2 26 4 6
5 23 4 38 -2 15 1 24 6 21 5 -4 8 3 6 14 -2 11 6 29 16 41 14 15 15 21 6 21
-9 0 -7 5 6 14 10 8 20 19 20 25 1 6 2 16 3 22 0 5 5 8 9 5 5 -3 15 6 22 19 7
14 14 25 15 25 1 0 2 -15 1 -34z m21 12 c-3 -8 -6 -5 -6 6 -1 11 2 17 5 13 3
-3 4 -12 1 -19z m127 -60 c-3 -4 -12 -8 -20 -8 -8 0 -14 4 -14 8 0 4 9 8 19 8
11 0 17 -4 15 -8z m-15 -25 c2 -2 -5 -3 -17 -3 -14 0 -22 6 -22 16 0 14 3 15
18 3 9 -7 19 -15 21 -16z m-7 -20 c-6 -2 -10 -9 -6 -14 3 -5 0 -9 -5 -9 -6 0
-11 -5 -11 -11 0 -6 6 -7 13 -2 6 4 4 -5 -6 -21 -10 -15 -16 -30 -13 -34 3 -3
-2 -14 -11 -25 -17 -20 -17 -20 2 -14 20 7 20 7 1 -8 -14 -11 -16 -15 -5 -15
12 0 12 -2 -1 -10 -11 -7 -11 -10 -2 -10 7 0 10 -5 7 -10 -4 -6 -11 -7 -17 -4
-5 4 -2 -5 7 -20 16 -23 16 -26 1 -32 -12 -5 -13 -10 -5 -25 6 -12 6 -19 0
-19 -5 0 -8 -11 -5 -25 2 -14 0 -25 -6 -25 -6 0 -8 -5 -4 -12 12 -19 12 -48 1
-55 -6 -4 -7 -1 -2 7 5 8 4 11 -2 7 -5 -3 -8 -21 -5 -39 4 -33 4 -33 -15 -13
-14 14 -17 22 -9 28 8 5 6 10 -4 17 -12 8 -12 10 -1 10 11 0 11 3 1 15 -14 17
0 21 17 4 8 -8 13 -8 18 0 3 6 1 10 -6 9 -6 -2 -15 10 -20 25 -6 22 -5 26 5
18 8 -7 12 -5 12 9 0 10 -4 16 -8 14 -13 -8 -9 11 5 25 8 10 8 12 0 7 -7 -4
-11 1 -10 13 0 11 5 17 9 15 4 -3 8 -1 8 5 0 5 -6 12 -12 14 -9 4 -10 8 -3 14
12 9 13 23 2 41 -5 7 -5 12 0 11 20 -3 27 2 13 11 -12 8 -12 10 -1 10 10 0 11
3 2 14 -9 11 -6 17 14 30 25 16 25 17 8 43 -13 19 -14 25 -4 18 11 -6 13 -4 8
8 -5 14 0 17 26 16 18 0 26 -3 19 -6z m5153 -22 c3 -5 2 -12 -3 -15 -5 -3 -9
1 -9 9 0 17 3 19 12 6z m-5195 -36 c0 -12 -19 -12 -23 0 -4 9 -1 12 9 8 7 -3
14 -7 14 -8z m245 -45 c-3 -5 -12 -10 -18 -10 -7 0 -6 4 3 10 19 12 23 12 15
0z m-15 -30 c8 -5 11 -10 5 -10 -5 0 -17 5 -25 10 -8 5 -10 10 -5 10 6 0 17
-5 25 -10z m-22 -55 c-3 -3 -9 2 -12 12 -6 14 -5 15 5 6 7 -7 10 -15 7 -18z
m-3 -23 c-3 -3 -11 0 -18 7 -9 10 -8 11 6 5 10 -3 15 -9 12 -12z m-24 -59 c13
-16 12 -17 -3 -4 -10 7 -18 15 -18 17 0 8 8 3 21 -13z m-16 -41 c-3 -3 -11 0
-18 7 -9 10 -8 11 6 5 10 -3 15 -9 12 -12z m-15 -36 c0 -3 -4 -8 -10 -11 -5
-3 -10 -1 -10 4 0 6 5 11 10 11 6 0 10 -2 10 -4z m-15 -36 c3 -6 -1 -7 -9 -4
-18 7 -21 14 -7 14 6 0 13 -4 16 -10z m-11 -42 c-3 -4 -11 -8 -17 -7 -9 0 -9
2 0 5 7 3 9 13 6 22 -4 14 -3 14 5 2 6 -8 8 -18 6 -22z m-162 -60 c-2 -10 -12
-18 -21 -19 -11 0 -9 -3 7 -9 12 -5 22 -12 22 -15 0 -4 -4 -4 -9 -1 -13 9 -21
-20 -9 -32 8 -8 7 -13 -4 -17 -10 -4 -15 -16 -14 -30 2 -16 -1 -22 -11 -18
-18 7 -13 -18 7 -35 13 -11 12 -12 -5 -4 -11 6 -20 21 -21 36 0 14 3 23 7 20
4 -2 10 0 14 6 3 5 2 10 -3 10 -4 0 -8 14 -8 30 0 21 4 29 12 26 8 -3 11 1 7
10 -3 7 -10 14 -17 14 -7 0 -7 3 -1 8 12 8 18 30 17 56 -1 18 -1 18 17 0 10
-11 16 -27 13 -36z m131 -35 c-3 -7 -6 -13 -8 -13 -2 0 -5 6 -8 13 -3 8 1 14
8 14 7 0 11 -6 8 -14z m-19 -29 c5 -14 4 -15 -9 -4 -17 14 -19 20 -6 20 5 0
12 -7 15 -16z m11 -26 c5 4 5 1 1 -6 -6 -10 -11 -10 -22 -1 -8 6 -14 14 -14
16 0 3 6 0 13 -6 8 -6 18 -7 22 -3z m-191 -146 c3 -5 -1 -9 -9 -9 -8 0 -12 4
-9 9 3 4 7 8 9 8 2 0 6 -4 9 -8z m-64 -142 c0 -5 -2 -10 -4 -10 -3 0 -8 5 -11
10 -3 6 -1 10 4 10 6 0 11 -4 11 -10z m4924 -621 c-3 -5 -10 -7 -15 -3 -5 3
-7 10 -3 15 3 5 10 7 15 3 5 -3 7 -10 3 -15z m-22 -51 c-7 -7 -12 -8 -12 -2 0
14 12 26 19 19 2 -3 -1 -11 -7 -17z m-3482 -468 c0 -5 -2 -10 -4 -10 -3 0 -8
5 -11 10 -3 6 -1 10 4 10 6 0 11 -4 11 -10z m467 -525 c0 -8 -4 -12 -9 -9 -5
3 -6 10 -3 15 9 13 12 11 12 -6z m44 -102 c13 -16 12 -17 -3 -4 -10 7 -18 15
-18 17 0 8 8 3 21 -13z m2019 -17 c0 -2 -6 -9 -14 -15 -11 -9 -16 -9 -22 0 -4
7 -3 9 4 5 6 -3 13 -2 17 4 6 10 15 14 15 6z m-87 -71 c-3 -9 -8 -14 -10 -11
-3 3 -2 9 2 15 9 16 15 13 8 -4z m-393 -329 c0 -2 -8 -10 -17 -17 -16 -13 -17
-12 -4 4 13 16 21 21 21 13z"/>
<path d="M2086 3827 c3 -10 9 -15 12 -12 3 3 0 11 -7 18 -10 9 -11 8 -5 -6z"/>
<path d="M2230 3765 c0 -7 30 -13 34 -7 3 4 -4 9 -15 9 -10 1 -19 0 -19 -2z"/>
<path d="M2195 3380 c-3 -5 -1 -10 4 -10 6 0 11 5 11 10 0 6 -2 10 -4 10 -3 0
-8 -4 -11 -10z"/>
<path d="M4626 9632 c-3 -5 1 -9 9 -9 8 0 12 4 9 9 -3 4 -7 8 -9 8 -2 0 -6 -4
-9 -8z"/>
<path d="M4570 9619 c0 -5 5 -7 10 -4 6 3 10 8 10 11 0 2 -4 4 -10 4 -5 0 -10
-5 -10 -11z"/>
<path d="M4516 9612 c-3 -5 1 -9 9 -9 8 0 12 4 9 9 -3 4 -7 8 -9 8 -2 0 -6 -4
-9 -8z"/>
<path d="M6066 9378 c3 -4 9 -8 15 -8 5 0 9 4 9 8 0 5 -7 9 -15 9 -8 0 -12 -4
-9 -9z"/>
<path d="M1791 7956 c-9 -11 -9 -16 1 -22 7 -4 10 -4 6 1 -4 4 -3 14 3 22 6 7
9 13 6 13 -2 0 -10 -6 -16 -14z"/>
<path d="M8336 7953 c-6 -14 -5 -15 5 -6 7 7 10 15 7 18 -3 3 -9 -2 -12 -12z"/>
<path d="M2060 7903 c0 -17 17 -25 26 -12 4 8 9 7 15 -2 6 -10 9 -10 9 -2 0
17 -17 25 -26 12 -4 -8 -9 -7 -15 2 -6 10 -9 10 -9 2z"/>
<path d="M7675 7850 c-3 -5 -1 -10 4 -10 6 0 11 5 11 10 0 6 -2 10 -4 10 -3 0
-8 -4 -11 -10z"/>
<path d="M2426 7818 c3 -5 10 -6 15 -3 13 9 11 12 -6 12 -8 0 -12 -4 -9 -9z"/>
<path d="M2880 7625 c0 -2 10 -10 23 -16 20 -11 21 -11 8 4 -13 16 -31 23 -31
12z"/>
<path d="M6940 7481 c0 -6 4 -13 10 -16 6 -3 7 1 4 9 -7 18 -14 21 -14 7z"/>
<path d="M6835 7461 c-3 -5 -2 -12 3 -15 5 -3 9 1 9 9 0 17 -3 19 -12 6z"/>
<path d="M3160 7456 c0 -2 7 -7 16 -10 8 -3 12 -2 9 4 -6 10 -25 14 -25 6z"/>
<path d="M1610 7420 c-9 -6 -10 -10 -3 -10 6 0 15 5 18 10 8 12 4 12 -15 0z"/>
<path d="M1610 7299 c0 -5 5 -7 10 -4 6 3 10 8 10 11 0 2 -4 4 -10 4 -5 0 -10
-5 -10 -11z"/>
<path d="M8320 6621 c0 -6 4 -13 10 -16 6 -3 7 1 4 9 -7 18 -14 21 -14 7z"/>
<path d="M7875 6089 c-4 -6 -5 -12 -2 -15 2 -3 7 2 10 11 7 17 1 20 -8 4z"/>
<path d="M1400 6079 c0 -5 -4 -8 -9 -4 -5 3 -12 1 -15 -4 -4 -5 2 -8 11 -7 15
3 33 26 19 26 -3 0 -6 -5 -6 -11z"/>
<path d="M7565 5840 c-3 -5 -2 -10 4 -10 5 0 13 5 16 10 3 6 2 10 -4 10 -5 0
-13 -4 -16 -10z"/>
<path d="M2470 5786 c0 -2 7 -7 16 -10 8 -3 12 -2 9 4 -6 10 -25 14 -25 6z"/>
<path d="M7545 5669 c-11 -16 -1 -19 13 -3 7 8 8 14 3 14 -5 0 -13 -5 -16 -11z"/>
<path d="M2398 5223 c7 -3 16 -2 19 1 4 3 -2 6 -13 5 -11 0 -14 -3 -6 -6z"/>
<path d="M7605 5220 c-3 -5 1 -10 9 -10 9 0 16 5 16 10 0 6 -4 10 -9 10 -6 0
-13 -4 -16 -10z"/>
<path d="M7586 5151 c-3 -5 0 -13 7 -19 10 -8 13 -6 13 9 0 20 -11 25 -20 10z"/>
<path d="M1605 5021 c-3 -5 -2 -12 3 -15 5 -3 9 1 9 9 0 17 -3 19 -12 6z"/>
<path d="M1938 3873 c7 -3 16 -2 19 1 4 3 -2 6 -13 5 -11 0 -14 -3 -6 -6z"/>
<path d="M1515 2660 c-3 -5 -1 -10 4 -10 6 0 11 5 11 10 0 6 -2 10 -4 10 -3 0
-8 -4 -11 -10z"/>
<path d="M3010 2316 c0 -2 8 -10 18 -17 15 -13 16 -12 3 4 -13 16 -21 21 -21
13z"/>
<path d="M3226 2057 c3 -10 9 -15 12 -12 3 3 0 11 -7 18 -10 9 -11 8 -5 -6z"/>
</g>
</svg>
